HIERARCHY
ROOT Hips
{
	OFFSET 0.000000 0.000000 0.000000 
	CHANNELS 6 Xposition Yposition Zposition Zrotation Yrotation Xrotation
	JOINT LeftUpLeg
	{
		OFFSET 1.363060 -1.794630 0.839290 
		CHANNELS 3 Zrotation Yrotation Xrotation
		JOINT LeftLeg
		{
			OFFSET 2.448110 -6.726130 0.000000 
			CHANNELS 3 Zrotation Yrotation Xrotation
			JOINT LeftFoot
			{
				OFFSET 2.562200 -7.039590 0.000000 
				CHANNELS 3 Zrotation Yrotation Xrotation
				JOINT LeftToeBase
				{
					OFFSET 0.157640 -0.433110 2.322550 
					CHANNELS 3 Zrotation Yrotation Xrotation
					End Site
					{
						OFFSET 0.000000 0.000000 0.000000 
					}
				}
			}
		}
	}
	JOINT RightUpLeg
	{
		OFFSET -1.305520 -1.794630 0.839290 
		CHANNELS 3 Zrotation Yrotation Xrotation
		JOINT RightLeg
		{
			OFFSET -2.542530 -6.985550 0.000000 
			CHANNELS 3 Zrotation Yrotation Xrotation
			JOINT RightFoot
			{
				OFFSET -2.568260 -7.056230 0.000000 
				CHANNELS 3 Zrotation Yrotation Xrotation
				JOINT RightToeBase
				{
					OFFSET -0.164730 -0.452590 2.363150 
					CHANNELS 3 Zrotation Yrotation Xrotation
					End Site
					{
						OFFSET 0.000000 0.000000 0.000000 
					}
				}
			}
		}
	}
	JOINT Spine
	{
		OFFSET 0.028270 2.035590 -0.193380 
		CHANNELS 3 Zrotation Yrotation Xrotation
		JOINT Spine1
		{
			OFFSET 0.056720 2.048850 -0.042750 
			CHANNELS 3 Zrotation Yrotation Xrotation
			JOINT Neck1
			{
				OFFSET -0.054170 1.746240 0.172020 
				CHANNELS 3 Zrotation Yrotation Xrotation
				JOINT Head
				{
					OFFSET 0.104070 1.761360 -0.123970 
					CHANNELS 3 Zrotation Yrotation Xrotation
					End Site
					{
						OFFSET 0.000000 0.000000 0.000000 
					}
				}
			}
			JOINT LeftArm
			{
				OFFSET 3.362410 1.200890 -0.311210 
				CHANNELS 3 Zrotation Yrotation Xrotation
				JOINT LeftForeArm
				{
					OFFSET 4.983000 -0.000000 -0.000000 
					CHANNELS 3 Zrotation Yrotation Xrotation
					JOINT LeftHand
					{
						OFFSET 3.483560 -0.000000 -0.000000 
						CHANNELS 3 Zrotation Yrotation Xrotation
						JOINT LeftHandIndex1
						{
							OFFSET 0.715260 -0.000000 -0.000000 
							CHANNELS 3 Zrotation Yrotation Xrotation
							End Site
							{
								OFFSET 0.000000 0.000000 0.000000 
							}
						}
					}
				}
			}
			JOINT RightArm
			{
				OFFSET -3.136600 1.374050 -0.404650 
				CHANNELS 3 Zrotation Yrotation Xrotation
				JOINT RightForeArm
				{
					OFFSET -5.241900 -0.000000 -0.000000 
					CHANNELS 3 Zrotation Yrotation Xrotation
					JOINT RightHand
					{
						OFFSET -3.444170 -0.000000 -0.000000 
						CHANNELS 3 Zrotation Yrotation Xrotation
						JOINT RightHandIndex1
						{
							OFFSET -0.622530 -0.000000 -0.000000 
							CHANNELS 3 Zrotation Yrotation Xrotation
							End Site
							{
								OFFSET 0.000000 0.000000 0.000000 
							}
						}
					}
				}
			}
		}
	}
}
MOTION
Frames: 15
Frame Time: 0.041667
-9.517625 18.232524 -31.347459 176.984540 8.241005 178.536063 -21.752763 -19.257641 1.134708 -3.665573 5.881567 17.695128 -7.370286 21.600860 -9.682934 0.748500 -5.526100 -15.415300 25.447792 1.184180 -25.928433 -5.086582 -17.265810 51.548317 4.884162 -19.009377 -11.631477 -0.686200 -5.296000 14.754800 0.418507 -4.080490 5.548179 -0.521337 -1.724577 -10.722980 22.383325 -21.223247 11.105716 5.978800 -9.964900 6.466900 -76.215994 -4.111986 9.543735 25.618977 -25.856261 -6.357829 1.414204 0.695868 20.020717 -7.125000 0.000000 0.000000 78.857575 -12.037484 19.256620 -20.199999 23.059041 -5.534840 1.297821 0.171315 14.430170 7.125000 0.000000 0.000000 
-9.506552 18.240299 -31.471979 177.043358 8.544851 178.633813 -21.763046 -18.935843 1.341391 -3.674808 5.833449 17.606976 -7.566158 22.098558 -9.763540 1.015300 -6.410700 -17.980800 25.748203 1.102222 -26.322595 -4.292384 -16.826798 49.174151 5.216361 -19.993541 -12.130141 -0.472700 -4.409300 12.231000 0.493998 -4.254418 5.694387 -0.486556 -1.821716 -10.610039 22.339614 -21.503906 10.882070 5.908500 -10.116400 6.472100 -75.908602 -4.839594 10.106422 25.809704 -26.077895 -6.478562 1.440409 0.677006 19.276796 -7.125000 0.000000 0.000000 78.864891 -11.949167 18.828060 -20.007985 22.823072 -5.439610 1.311096 0.158513 14.376818 7.125000 0.000000 0.000000 
-9.495714 18.242655 -31.595086 177.048274 8.979713 178.665128 -21.861508 -18.657869 1.702827 -3.708188 5.737010 17.423398 -7.643728 22.321379 -9.999282 0.992400 -6.340300 -17.775100 25.950794 1.072165 -26.576631 -3.482932 -16.317205 46.693654 5.579730 -21.050360 -12.663126 -0.436500 -4.239600 11.751900 0.565451 -4.411869 5.909695 -0.431070 -1.908030 -10.514165 22.009990 -21.653872 10.796506 5.728000 -10.191700 6.471600 -75.781913 -5.376903 10.721064 26.153840 -26.443153 -6.661229 1.409572 0.693736 18.870966 -7.125000 0.000000 0.000000 78.846351 -11.732996 18.403815 -19.798170 22.564332 -5.332758 1.324675 0.141641 14.610043 7.125000 0.000000 0.000000 
-9.480752 18.240653 -31.718428 176.983999 9.546047 178.781738 -21.975931 -18.215363 1.925004 -3.736063 5.653766 17.268770 -7.637475 22.339806 -10.188026 1.002000 -6.370000 -17.861900 26.134472 1.123681 -26.755603 -2.665472 -15.748567 44.125931 6.014375 -22.313261 -13.263205 -0.518000 -4.612700 12.807100 0.510182 -4.491281 5.743828 -0.410386 -1.951758 -10.598573 21.882094 -21.699397 10.742836 5.662400 -10.219700 6.435300 -75.712549 -5.650438 11.250314 26.443480 -26.762585 -6.821796 1.400783 0.685318 18.581632 -7.125000 0.000000 0.000000 78.975235 -11.975190 18.235295 -19.872719 22.644277 -5.345687 1.324403 0.137631 14.408489 7.125000 0.000000 0.000000 
-9.462139 18.235233 -31.843302 176.928837 10.100072 178.887223 -22.051315 -17.644482 2.076811 -3.760608 5.575672 17.166829 -7.504547 22.045965 -10.514695 0.953300 -6.217500 -17.416700 26.315398 1.259907 -26.840117 -1.851556 -15.126643 41.542961 6.377108 -23.391476 -14.101268 -0.603700 -4.973700 13.833500 0.528768 -4.564244 5.914769 -0.356850 -1.993188 -10.377921 22.222249 -21.625763 10.349334 5.793100 -10.212000 6.342100 -75.326282 -6.010364 12.908057 26.776616 -27.065248 -6.986512 1.337898 0.701914 17.472310 -7.125000 0.000000 0.000000 79.040170 -12.101288 18.380324 -20.186340 23.021808 -5.477852 1.314115 0.154371 13.856162 7.125000 0.000000 0.000000 
-9.442937 18.230639 -31.960990 176.823626 10.530983 178.986595 -22.138834 -17.169907 2.295116 -3.812399 5.440433 16.898854 -7.402253 21.832256 -10.842678 0.886900 -6.003000 -16.793200 26.385236 1.510724 -26.862461 -1.057186 -14.474017 39.024673 6.601972 -24.142391 -15.380867 -0.786200 -5.660400 15.802100 0.420011 -4.669994 5.964036 -0.343708 -2.048643 -10.289676 22.898135 -21.548016 9.871009 6.094500 -10.221200 6.254100 -75.033002 -6.433231 13.994334 27.074325 -27.356971 -7.142545 1.290551 0.715484 16.965354 -7.125000 0.000000 0.000000 79.179632 -12.204718 18.366772 -20.407880 23.286448 -5.562419 1.306611 0.166019 13.607218 7.125000 0.000000 0.000000 
-9.423734 18.230168 -32.065248 176.765009 10.949673 179.120616 -22.181070 -16.816082 2.559734 -3.865233 5.274636 16.496747 -7.434327 21.908932 -10.709758 0.776000 -5.624400 -15.698500 26.470264 1.854663 -26.867927 -0.291112 -13.811422 36.585491 6.776963 -24.859844 -17.012337 -1.076300 -6.594400 18.519300 0.613976 -4.868822 5.376982 -0.111200 -2.113864 -10.798994 22.686959 -21.761686 9.965101 6.022900 -10.336100 6.273400 -75.148218 -6.402225 14.371028 27.431056 -27.766700 -7.355006 1.286424 0.699442 17.130251 -7.125000 0.000000 0.000000 79.077093 -12.657164 18.685455 -20.555462 23.460123 -5.606042 1.300022 0.167859 13.348402 7.125000 0.000000 0.000000 
-9.400527 18.233584 -32.199428 176.403323 11.504925 179.103222 -22.661895 -16.445097 3.111716 -3.929701 5.103870 16.158875 -7.313908 21.730776 -11.206807 0.526700 -4.651000 -12.915700 26.278682 1.928787 -26.789228 0.389337 -13.114362 34.210455 7.061480 -25.767369 -18.225326 -1.225300 -7.020600 19.776300 0.493071 -4.930476 5.234746 0.014491 -2.130651 -10.724944 23.110097 -21.742962 9.623841 6.237300 -10.373900 6.194600 -75.265075 -6.503095 14.851087 27.766947 -28.138804 -7.563743 1.295344 0.681868 17.355805 -7.125000 0.000000 0.000000 79.004334 -12.997555 18.946138 -20.734979 23.681661 -5.693950 1.288305 0.203339 13.095489 7.125000 0.000000 0.000000 
-9.374963 18.234644 -32.333844 176.178102 12.367160 179.292235 -22.956477 -15.978932 3.436859 -4.009100 4.922198 15.769319 -7.304125 21.827213 -11.888455 0.407500 -4.097900 -11.352200 26.249867 2.313158 -26.751049 1.039786 -12.428736 31.887779 7.440083 -27.010719 -19.511951 -1.201200 -6.953800 19.578500 0.353675 -4.898982 5.094005 0.027654 -2.125418 -10.549260 23.137139 -21.672936 9.549982 6.242300 -10.342900 6.162200 -75.200300 -6.637510 15.482814 28.092045 -28.482538 -7.761725 1.286705 0.678319 17.132062 -7.125000 0.000000 0.000000 79.088141 -13.222460 19.028038 -20.996317 24.007709 -5.839034 1.266412 0.245808 12.927814 7.125000 0.000000 0.000000 
-9.348103 18.234173 -32.449058 176.203694 12.632862 179.485987 -22.846221 -15.457173 3.684686 -4.077691 4.683580 15.180647 -7.423353 22.092583 -11.647110 0.470600 -4.400000 -12.204800 26.293884 2.844651 -26.629503 1.665505 -11.756626 29.725991 7.694025 -28.196165 -21.664973 -1.361000 -7.384300 20.859000 0.416659 -5.188053 4.794793 0.116540 -2.268159 -10.726455 22.930400 -21.567919 9.628027 6.147400 -10.279100 6.131000 -75.136784 -6.618779 15.993841 28.433298 -28.849887 -7.966740 1.270581 0.673302 17.279989 -7.125000 0.000000 0.000000 79.212719 -13.496409 19.077207 -21.277712 24.320427 -5.929711 1.262372 0.233239 12.890518 7.125000 0.000000 0.000000 
-9.316414 18.222746 -32.559206 175.903517 13.144588 179.511357 -23.100849 -14.749259 3.852878 -4.106713 4.532598 14.858448 -7.420381 22.128857 -11.585919 0.507600 -4.567000 -12.677600 25.957376 3.776586 -26.335801 2.228718 -11.060591 27.597503 7.803518 -28.846695 -23.223042 -1.746000 -8.315700 23.677200 0.159410 -5.247551 5.290985 0.184683 -2.305195 -10.280357 23.042794 -21.551454 9.301298 6.134100 -10.277300 6.070100 -74.918489 -7.140936 16.644304 28.793595 -29.199659 -8.171353 1.246233 0.673846 17.552826 -7.125000 0.000000 0.000000 79.417311 -13.202524 18.883227 -21.504722 24.532000 -5.922394 1.272336 0.204724 12.920187 7.125000 0.000000 0.000000 
-9.290968 18.210612 -32.691030 175.400618 13.859925 179.747713 -23.608413 -14.042001 3.981224 -4.144713 4.372671 14.472925 -7.439834 22.266443 -11.519019 0.621800 -5.046300 -14.040600 25.414752 4.635623 -26.220915 2.681354 -10.437685 25.678650 7.935477 -29.309765 -23.974867 -2.039000 -8.946900 25.629500 -0.303658 -5.288337 4.806341 0.202487 -2.326815 -10.205114 22.597445 -21.553477 9.476488 5.926300 -10.259800 6.023500 -74.881624 -6.883702 17.376468 29.261290 -29.682587 -8.456385 1.217326 0.671376 17.573748 -7.125000 0.000000 0.000000 79.593319 -13.689005 19.233924 -21.914379 24.942730 -6.002644 1.262473 0.187562 12.626177 7.125000 0.000000 0.000000 
-9.258807 18.198007 -32.814726 175.474342 14.358786 179.737988 -23.556508 -13.472300 4.357865 -4.159480 4.233471 14.200514 -7.434935 22.254128 -11.379795 0.679600 -5.270900 -14.682900 25.303960 5.958755 -25.530207 3.115687 -9.819663 23.912572 8.263213 -30.751839 -25.753465 -2.173700 -9.219000 26.482700 -0.365422 -5.412859 4.682611 0.086832 -2.408303 -10.249101 22.913947 -21.229462 9.120665 6.107200 -10.144600 5.843500 -74.792494 -6.811530 17.932055 29.667239 -30.115338 -8.715232 1.211608 0.655885 17.359094 -7.125000 0.000000 0.000000 79.701264 -13.978505 19.624919 -22.207754 25.280431 -6.149776 1.252026 0.193216 12.294259 7.125000 0.000000 0.000000 
-9.221345 18.189172 -32.941485 174.875076 14.799252 179.467594 -24.222619 -12.988800 4.958527 -4.185333 4.094066 13.961385 -7.314339 22.104799 -11.737897 0.731600 -5.464700 -15.238900 24.357874 7.678143 -24.650741 3.504345 -9.222075 22.297244 8.568036 -32.280668 -28.100483 -2.465000 -9.773900 28.247700 -0.633170 -5.599019 4.736713 0.322958 -2.468890 -10.118817 22.946331 -21.002775 8.861077 6.158600 -10.067000 5.710500 -74.778418 -6.802092 18.630530 30.019930 -30.464688 -8.938779 1.194453 0.652192 16.781391 -7.125000 0.000000 0.000000 79.662879 -14.137455 19.939986 -22.388505 25.547624 -6.354348 1.236807 0.239058 11.957444 7.125000 0.000000 0.000000 
-9.182115 18.183870 -33.046214 174.949277 15.538410 179.907175 -24.001218 -12.497633 4.703213 -4.192041 4.055547 13.879148 -7.354555 22.189312 -11.797362 0.979100 -6.298900 -17.654300 23.928504 10.244804 -24.041574 3.931591 -8.666632 20.740394 8.273364 -32.919932 -31.273667 -3.256300 -11.098900 32.614000 -0.660345 -5.550661 4.597591 0.187216 -2.475560 -9.937187 22.993344 -21.000918 8.796980 6.151200 -10.062100 5.721000 -74.555007 -6.940586 19.504041 30.392347 -30.833025 -9.180428 1.171830 0.654152 16.360250 -7.125000 0.000000 0.000000 79.850653 -14.233792 19.919718 -22.654689 25.874661 -6.529511 1.216985 0.269661 11.660606 7.125000 0.000000 0.000000 
